ffmpeg started on 2016-11-27 at 06:12:03
Report written to "Output/NVENCh264/results/ffmpeg/sintelllhq4000k.log"
Command line:
Tools/ffmpeg/ffmpeg -benchmark -y -i Input/y4m/sintel.y4m -c:v h264_nvenc -preset llhq -b:v 4000k -an Output/NVENCh264/encoded/sintelllhq4000k.mkv
ffmpeg version N-82227-gdb23fde Copyright (c) 2000-2016 the FFmpeg developers
  built with gcc 5.4.0 (Ubuntu 5.4.0-6ubuntu1~16.04.2) 20160609
  configuration: --prefix=/home/jaroslav/ffmpeg_build --pkg-config-flags=--static --extra-cflags=-I/home/jaroslav/ffmpeg_build/include --extra-ldflags=-L/home/jaroslav/ffmpeg_build/lib --bindir=/home/jaroslav/bin --enable-gpl --enable-libass --enable-libfdk-aac --enable-libfreetype --enable-libmp3lame --enable-libopus --enable-libtheora --enable-libvorbis --enable-libvpx --enable-libx264 --enable-libx265 --enable-nvenc --enable-libmfx --enable-libxvid --enable-libgsm --enable-libopencore-amrnb --enable-version3 --enable-nonfree
  libavutil      55. 35.100 / 55. 35.100
  libavcodec     57. 66.101 / 57. 66.101
  libavformat    57. 57.100 / 57. 57.100
  libavdevice    57.  2.100 / 57.  2.100
  libavfilter     6. 66.100 /  6. 66.100
  libswscale      4.  3.100 /  4.  3.100
  libswresample   2.  4.100 /  2.  4.100
  libpostproc    54.  2.100 / 54.  2.100
Input #0, yuv4mpegpipe, from 'Input/y4m/sintel.y4m':
  Duration: 00:00:20.83, start: 0.000000, bitrate: 2057307 kb/s
    Stream #0:0: Video: rawvideo (I420 / 0x30323449), yuv420p(progressive), 4096x1744, SAR 1:1 DAR 256:109, 24 fps, 24 tbr, 24 tbn, 24 tbc
[h264_nvenc @ 0x2d311c0] The variable bitrate rate-control requires the 'qmin' and/or 'qmax' option set.
Output #0, matroska, to 'Output/NVENCh264/encoded/sintelllhq4000k.mkv':
  Metadata:
    encoder         : Lavf57.57.100
    Stream #0:0: Video: h264 (h264_nvenc) (Main) (H264 / 0x34363248), yuv420p, 4096x1744 [SAR 1:1 DAR 256:109], q=-1--1, 4000 kb/s, 24 fps, 1k tbn, 24 tbc
    Metadata:
      encoder         : Lavc57.66.101 h264_nvenc
    Side data:
      cpb: bitrate max/min/avg: 0/0/4000000 buffer size: 8000000 vbv_delay: -1
Stream mapping:
  Stream #0:0 -> #0:0 (rawvideo (native) -> h264 (h264_nvenc))
Press [q] to stop, [?] for help
frame=    3 fps=1.1 q=0.0 size=       0kB time=00:00:00.00 bitrate=N/A speed=   0x    frame=   10 fps=3.1 q=0.0 size=       0kB time=00:00:00.00 bitrate=N/A speed=   0x    frame=   31 fps=8.3 q=25.0 size=       1kB time=00:00:00.00 bitrate=5976.0kbits/s speed=0.000267x    frame=   52 fps= 12 q=46.0 size=       1kB time=00:00:00.87 bitrate=   6.8kbits/s speed=0.206x    frame=   73 fps= 15 q=44.0 size=       1kB time=00:00:01.75 bitrate=   3.4kbits/s speed=0.368x    frame=   94 fps= 18 q=44.0 size=       1kB time=00:00:02.62 bitrate=   2.3kbits/s speed=0.498x    frame=  115 fps= 20 q=43.0 size=       1kB time=00:00:03.50 bitrate=   1.7kbits/s speed=0.606x    frame=  125 fps= 20 q=39.0 size=       1kB time=00:00:03.91 bitrate=   1.5kbits/s speed=0.622x    frame=  146 fps= 21 q=37.0 size=    2248kB time=00:00:04.79 bitrate=3842.6kbits/s speed=0.704x    frame=  167 fps= 23 q=43.0 size=    2248kB time=00:00:05.66 bitrate=3249.4kbits/s speed=0.773x    frame=  172 fps= 21 q=42.0 size=    2248kB time=00:00:05.87 bitrate=3134.4kbits/s speed=0.725x    frame=  173 fps= 15 q=42.0 size=    2248kB time=00:00:05.91 bitrate=3112.1kbits/s speed=0.513x    frame=  179 fps= 15 q=42.0 size=    2248kB time=00:00:06.16 bitrate=2986.0kbits/s speed=0.512x    frame=  200 fps= 16 q=39.0 size=    2248kB time=00:00:07.04 bitrate=2615.0kbits/s speed=0.56x    frame=  221 fps= 17 q=37.0 size=    2248kB time=00:00:07.91 bitrate=2326.0kbits/s speed=0.605x    frame=  242 fps= 18 q=39.0 size=    2248kB time=00:00:08.79 bitrate=2094.6kbits/s speed=0.647x    frame=  263 fps= 19 q=39.0 size=    2248kB time=00:00:09.66 bitrate=1905.0kbits/s speed=0.686x    frame=  284 fps= 19 q=34.0 size=    4716kB time=00:00:10.54 bitrate=3664.5kbits/s speed=0.721x    frame=  305 fps= 20 q=39.0 size=    5320kB time=00:00:11.41 bitrate=3817.2kbits/s speed=0.754x    frame=  326 fps= 21 q=37.0 size=    5320kB time=00:00:12.29 bitrate=3545.5kbits/s speed=0.785x    frame=  347 fps= 21 q=33.0 size=    5320kB time=00:00:13.16 bitrate=3309.9kbits/s speed=0.815x    frame=  368 fps= 22 q=32.0 size=    5320kB time=00:00:14.04 bitrate=3103.6kbits/s speed=0.842x    frame=  389 fps= 23 q=32.0 size=    5320kB time=00:00:14.91 bitrate=2921.6kbits/s speed=0.868x    frame=  410 fps= 23 q=35.0 size=    5320kB time=00:00:15.79 bitrate=2759.7kbits/s speed=0.892x    frame=  431 fps= 24 q=38.0 size=    7785kB time=00:00:16.66 bitrate=3826.2kbits/s speed=0.915x    frame=  452 fps= 24 q=38.0 size=    8430kB time=00:00:17.54 bitrate=3936.6kbits/s speed=0.936x    frame=  473 fps= 25 q=36.0 size=    8430kB time=00:00:18.41 bitrate=3749.6kbits/s speed=0.957x    frame=  494 fps= 25 q=35.0 size=    8430kB time=00:00:19.29 bitrate=3579.5kbits/s speed=0.977x    frame=  500 fps= 25 q=35.0 Lsize=   10120kB time=00:00:20.79 bitrate=3986.9kbits/s speed=1.04x    
video:10115kB audio:0kB subtitle:0kB other streams:0kB global headers:0kB muxing overhead: 0.046613%
bench: utime=0.984s
bench: maxrss=1189088kB
